<?xml version="1.0" encoding="UTF-8" standalone="no"?>
<!DOCTYPE svg PUBLIC "-//W3C//DTD SVG 1.1//EN" "http://www.w3.org/Graphics/SVG/1.1/DTD/svg11.dtd">
<svg width="100%" height="100%" viewBox="0 0 32 32" version="1.1" xmlns="http://www.w3.org/2000/svg" xmlns:xlink="http://www.w3.org/1999/xlink" xml:space="preserve" xmlns:serif="http://www.serif.com/" style="fill-rule:evenodd;clip-rule:evenodd;stroke-linejoin:round;stroke-miterlimit:2;">
    <g transform="matrix(0.322439,0,0,0.322439,10.842347,10.840967)">
        <g transform="matrix(0.189338,-0.000037,0.000037,0.189338,-20.81274,-32.996166)">
            <path d="M114.235,38.039C236.167,-76.647 353.9,111.648 374.906,220.449C382.038,257.39 409.338,358.915 348.172,439.22C265.696,547.504 89.111,543.734 20.039,405.716C-26.252,313.217 20.659,135.438 94.037,58.234L101.304,50.304L108.3,43.299L114.235,38.039Z" style="fill:url(#_Linear1);"/>
        </g>
        <g transform="matrix(0.617822,0.000469,-0.000441,0.580654,-10.718213,-8.663654)">
            <path d="M48.827,90.246C41.04,90.246 34.498,87.287 33.564,79.189C41.974,81.525 46.647,82.459 53.967,82.459C73.123,82.459 84.492,74.672 84.492,56.761C84.492,37.293 68.295,30.285 51.63,30.285C39.988,30.285 29.56,33.785 21.306,39.942C23.095,45.774 21.849,54.866 4.538,63.949C4.519,64.013 4.498,64.075 4.478,64.139C8.272,63.239 31.572,57.146 28.14,43.993C28.14,43.993 57.018,44.089 59.361,55.138C59.361,55.138 74.724,55.379 63.984,69.482C63.984,69.482 65.561,60.809 41.058,67.809C20.029,73.817 5.761,78.024 2.134,79.097C2.124,79.543 2.104,79.984 2.104,80.435C2.104,102.393 18.146,113.296 39.327,113.296C49.606,113.296 63.467,112.829 79.197,101.303L69.385,84.64C63.779,87.911 56.614,90.246 48.827,90.246Z" style="fill:white;"/>
        </g>
    </g>
    <defs>
        <linearGradient id="_Linear1" x1="0" y1="0" x2="1" y2="0" gradientUnits="userSpaceOnUse" gradientTransform="matrix(385.544921,0,0,513.094828,1.606321,258.813937)"><stop offset="0" style="stop-color:rgb(251,192,48);stop-opacity:1"/><stop offset="1" style="stop-color:rgb(255,217,125);stop-opacity:1"/></linearGradient>
    </defs>
</svg>
